<svg xmlns="http://www.w3.org/2000/svg" width="136.603" height="136.603" viewBox="0 0 136.603 136.603">
  <g id="MIK_Logo" data-name="MIK Logo" transform="translate(-162 -79.962)">
    <g id="Mik" transform="translate(-286.221 -252.721)">
      <rect id="Rectangle_2" data-name="Rectangle 2" width="100" height="100" transform="translate(466.318 351.039)"/>
      <rect id="Rectangle_3" data-name="Rectangle 3" width="100" height="100" transform="translate(448.221 382.683) rotate(-30)" fill="#fff"/>
      <path id="Path_1" data-name="Path 1" d="M18.335,89.9,6.365,14.258,6.436,74.3q.01,8.284.624,10.34.842,2.785,2.656,2.787l1.088,0,0,2.452L.107,89.87l0-2.452,1.088,0q1.95,0,2.762-3.442A55.742,55.742,0,0,0,4.441,74.3l-.07-58.72a57.323,57.323,0,0,0-.464-8.617A8.252,8.252,0,0,0,2.736,3.749,3.038,3.038,0,0,0,0,2.452L0,0,8.706.013,19.944,70.347,30.834.045l8.706.013,0,2.452-1.066,0q-1.972,0-2.785,3.442a55.741,55.741,0,0,0-.487,9.676l.07,58.72q.01,8.284.647,10.34.842,2.785,2.656,2.787l1.066,0,0,2.452-13.059-.019,0-2.452,1.088,0q1.972,0,2.762-3.442a55.742,55.742,0,0,0,.487-9.676L30.85,14.294,19.083,89.9Zm36.612-2.4,0,2.452L41.777,89.93l0-2.452,1.088,0q1.9,0,2.762-3.244.542-2.12.532-10.206l-.069-58.058a85.228,85.228,0,0,0-.305-9.014,7.606,7.606,0,0,0-.933-2.851q-1-1.592-2.088-1.594l-1.088,0,0-2.452L54.843.079l0,2.452-1.111,0q-1.882,0-2.739,3.244-.564,2.12-.555,10.206l.069,58.058a85.23,85.23,0,0,0,.305,9.014,7.359,7.359,0,0,0,.956,2.851q.977,1.592,2.065,1.594ZM69.9,40.132,81.274,73.087q2.8,8.156,4.774,11.108T90,87.548L90,90l-14.623-.021,0-2.452a1.95,1.95,0,0,0,1.892-1.29,6.973,6.973,0,0,0,.575-2.882,17.023,17.023,0,0,0-.219-2.85A36.357,36.357,0,0,0,76.2,75.8L65.552,45.1l.034,28.963a85.229,85.229,0,0,0,.305,9.014,7.359,7.359,0,0,0,.956,2.851q.977,1.592,2.065,1.594l1.043,0,0,2.452-13.1-.019,0-2.452,1.088,0q1.9,0,2.762-3.244.542-2.12.532-10.206l-.069-58.058a87.38,87.38,0,0,0-.306-9.08,7.535,7.535,0,0,0-.933-2.785q-1-1.592-2.088-1.594l-1.088,0,0-2.452L69.852.1l0,2.452-1.043,0q-1.066,0-2.061,1.521a7.6,7.6,0,0,0-.971,3.18A86.872,86.872,0,0,0,65.517,16l.033,27.5q.452-1.259,3.1-8.413,6.712-18.017,8.111-24.046a20.963,20.963,0,0,0,.607-4.638,7.037,7.037,0,0,0-.479-2.685,1.654,1.654,0,0,0-1.611-1.162h-.7l0-2.452L85.858.124l0,2.452a2.96,2.96,0,0,0-1.813.793,11.753,11.753,0,0,0-1.992,2.814,50.828,50.828,0,0,0-2.894,6.723q-.5,1.325-4.586,13.58Z" transform="translate(454.796 384.729) rotate(-30)" fill="#c20000" />
      <circle id="WhiteDotTop" cx="5" cy="5" r="5" transform="translate(472.627 353.251)" fill="#fff"/>
      <circle id="WhiteDotBottom" cx="5" cy="5" r="5" transform="translate(550.627 438.251)" fill="#fff"/>
    </g>
  </g>
</svg>
