<svg xmlns="http://www.w3.org/2000/svg" width="389.036" height="390.036" viewBox="0 0 389.036 390.036">
  <g id="Group_1" data-name="Group 1" transform="translate(-41 -40)">
    <g id="Ellipse_4" data-name="Ellipse 4" transform="translate(41 40)" fill="#fff" stroke="#707070" stroke-width="8">
      <circle cx="150" cy="150" r="150" stroke="none"/>
      <circle cx="150" cy="150" r="146" fill="none"/>
    </g>
    <line id="Line_4" data-name="Line 4" x2="132" y2="132" transform="translate(294.5 294.5)" fill="none" stroke="#707070" stroke-width="10"/>
    <line id="Line_5" data-name="Line 5" x1="119" y2="118" transform="translate(131.5 132.5)" fill="none" stroke="#707070" stroke-width="5"/>
    <line id="Line_6" data-name="Line 6" x1="119" y2="118" transform="translate(250 132) rotate(90)" fill="none" stroke="#707070" stroke-width="5"/>
    <g id="Sock" transform="translate(-56.5 77.343)">
      <path id="Path_3" data-name="Path 3" d="M182.172,53.2c-.832,2.155-4.789,35.931-8.305,44.854s-31.7,21.929-34.141,27.235-5.041,9.074-1.109,16.333,9.893,7.385,16.333,4.94,6.453-6.554,15.93-12.5,18.917-3,22.4-6.831,4-9.326,4.1-20.921,1.134-24.979,5.369-33.751,5.873-13.523,6.554-15.123S183,51.049,182.172,53.2Z" transform="translate(53.316 12)" fill="none" stroke="#707070" stroke-width="2"/>
      <path id="Path_4" data-name="Path 4" d="M139.5,125.063s9.751.623,13.376,5.207a78.606,78.606,0,0,1,6.784,10.664" transform="translate(52.281 14.961)" fill="none" stroke="#707070" stroke-width="1"/>
      <path id="Path_5" data-name="Path 5" d="M182.717,136.2a12.821,12.821,0,0,1,1.44-12.423c4.416-6.352,7.776-8.5,12.385-8.593a9.769,9.769,0,0,1,7.392,3.549" transform="translate(45.861 7.894)" fill="none" stroke="#707070" stroke-width="1"/>
      <path id="Path_6" data-name="Path 6" d="M167,58.188s18.011,3.115,23.293,5.146" transform="translate(66.281 22.297)" fill="none" stroke="#707070" stroke-width="1"/>
      <path id="Path_7" data-name="Path 7" d="M171.912,55.063a144.1,144.1,0,0,1-3.287,16.212" transform="translate(73.015 10.615)" fill="none" stroke="#707070" stroke-width="1"/>
      <path id="Path_8" data-name="Path 8" d="M170.5,71.318a36.427,36.427,0,0,1,6.086-16.068" transform="translate(77.777 11.739)" fill="none" stroke="#707070" stroke-width="1"/>
    </g>
    <g id="Sock-2" data-name="Sock" transform="translate(-21.5 96.343)">
      <path id="Path_3-2" data-name="Path 3" d="M182.172,53.2c-.832,2.155-4.789,35.931-8.305,44.854s-31.7,21.929-34.141,27.235-5.041,9.074-1.109,16.333,9.893,7.385,16.333,4.94,6.453-6.554,15.93-12.5,18.917-3,22.4-6.831,4-9.326,4.1-20.921,1.134-24.979,5.369-33.751,5.873-13.523,6.554-15.123S183,51.049,182.172,53.2Z" transform="translate(53.316 12)" fill="none" stroke="#707070" stroke-width="2" stroke-dasharray="5 2"/>
      <path id="Path_4-2" data-name="Path 4" d="M139.5,125.063s9.751.623,13.376,5.207a78.606,78.606,0,0,1,6.784,10.664" transform="translate(52.281 14.961)" fill="none" stroke="#707070" stroke-width="1" stroke-dasharray="5 2"/>
      <path id="Path_5-2" data-name="Path 5" d="M182.717,136.2a12.821,12.821,0,0,1,1.44-12.423c4.416-6.352,7.776-8.5,12.385-8.593a9.769,9.769,0,0,1,7.392,3.549" transform="translate(45.861 7.894)" fill="none" stroke="#707070" stroke-width="1" stroke-dasharray="5 2"/>
      <path id="Path_6-2" data-name="Path 6" d="M167,58.188s18.011,3.115,23.293,5.146" transform="translate(66.281 22.297)" fill="none" stroke="#707070" stroke-width="1" stroke-dasharray="5 2"/>
      <path id="Path_7-2" data-name="Path 7" d="M171.912,55.063a144.1,144.1,0,0,1-3.287,16.212" transform="translate(73.015 10.615)" fill="none" stroke="#707070" stroke-width="1" stroke-dasharray="5 2"/>
      <path id="Path_8-2" data-name="Path 8" d="M170.5,71.318a36.427,36.427,0,0,1,6.086-16.068" transform="translate(77.777 11.739)" fill="none" stroke="#707070" stroke-width="1" stroke-dasharray="5 2"/>
    </g>
  </g>
</svg>
