<svg xmlns="http://www.w3.org/2000/svg" width="18.725" height="23.947" viewBox="0 0 18.725 23.947"><g transform="translate(-188.668 -63.718)"><path d="M147.112,52.783c-.192.5-1.105,8.291-1.917,10.35s-7.314,5.06-7.878,6.285-1.163,2.094-.256,3.769,2.283,1.7,3.769,1.14,1.489-1.512,3.676-2.885,4.365-.692,5.168-1.576.922-2.152.945-4.828.262-5.764,1.239-7.788,1.355-3.121,1.512-3.49S147.3,52.286,147.112,52.783Z" transform="translate(53 12)" fill="none" stroke="#707070" stroke-width="2"/><path d="M139.5,125.063s2.761.166,3.787,1.384a20.739,20.739,0,0,1,1.921,2.835" transform="translate(50 -43)" fill="none" stroke="#707070" stroke-width="1"/><path d="M181.986,120.686a3.435,3.435,0,0,1,.367-3.251c1.124-1.662,1.98-2.224,3.153-2.249a2.47,2.47,0,0,1,1.882.929" transform="translate(16.512 -37.104)" fill="none" stroke="#707070" stroke-width="1"/><path d="M167,58.188a50.285,50.285,0,0,1,5.375,1.188" transform="translate(32.603 10.122)" fill="none" stroke="#707070" stroke-width="1"/><path d="M169.344,55.063a30.774,30.774,0,0,1-.719,3.5" transform="translate(32.963 10)" fill="none" stroke="#707070" stroke-width="1"/><path d="M170.5,58.781a8.239,8.239,0,0,1,1.281-3.531" transform="translate(32.603 10)" fill="none" stroke="#707070" stroke-width="1"/></g></svg>